<?xml version="1.0" encoding="iso-8859-1"?>
<!-- Uploaded to: SVG Repo, www.svgrepo.com, Generator: SVG Repo Mixer Tools -->
<svg height="800px" width="800px" version="1.1" id="Layer_1" xmlns="http://www.w3.org/2000/svg" xmlns:xlink="http://www.w3.org/1999/xlink"
	 viewBox="0 0 512 512" xml:space="preserve">
<g>
	<g>
		<path d="M510.69,326.48l-4.754-9.068l-2.026-3.868l-1.787-16.442c-0.571-5.253-4.655-9.438-9.893-10.136l-12.138-1.619
			c-2.394-0.319-4.521-1.686-5.806-3.732l-6.706-10.68c-1.486-2.366-4.085-3.803-6.88-3.803h-25.495l19.056-20.426
			c1.904-2.041,3.095-4.646,3.392-7.421l1.931-18.036l16.522-2.594c7.034-1.104,11.84-7.701,10.737-14.736
			c-1.104-7.034-7.7-11.847-14.736-10.737l-26.287,4.127c-5.762,0.904-10.198,5.564-10.819,11.364l-2.525,23.59l-10.278,11.017
			l-46.289-82.657c-3.839-6.857-11.105-11.118-18.964-11.118h-61.164c-5.523,0-10.347,3.739-11.725,9.088l-2.062,8.006
			l-16.922-14.248c-2.182-1.838-4.945-2.846-7.798-2.846h-42.442c-2.184,4.676-5.541,8.879-10.004,12.12l-27.438,19.925
			l-19.392,85.582v50.168c2.22,5.404,4.453,9.893,4.53,17.388l0.338,32.977c0.31,0.011,0.62,0.023,0.933,0.023h13.063
			c0-33.363,27.177-60.422,60.422-60.422c33.243,0,60.422,27.055,60.422,60.422h93.163c0-33.369,27.181-60.422,60.422-60.422
			c24.484,0,45.658,14.669,55.13,35.707c0.486,1.078,1.643,1.688,2.807,1.478c1.164-0.21,2.039-1.184,2.117-2.364l0.632-9.521
			C512.114,330.458,511.67,328.351,510.69,326.48z M329.624,287.882h-25.948c-4.572,0-8.279-3.706-8.279-8.279
			s3.706-8.279,8.279-8.279h25.948c4.572,0,8.279,3.706,8.279,8.279S334.197,287.882,329.624,287.882z M381.647,246.369
			l-21.791,12.108l-4.967,11.253l-43.051-18.575l-16.994,4.988l-12.155-9.776h-13.117l9.28-39.322
			c0.657-2.782-1.067-5.57-3.849-6.227l-9.498-2.242c-2.782-0.657-5.57,1.067-6.227,3.849l-10.369,43.941h-60.987l15.982-72.643
			h48.95l28.265,23.796c3.183,2.682,7.522,3.539,11.486,2.271c3.964-1.267,6.999-4.482,8.038-8.513l4.521-17.555h50.325
			l40.682,72.646H381.647z"/>
	</g>
</g>
<g>
	<g>
		<path d="M237.282,329.347c-21.178,0-38.345,17.168-38.345,38.345c0,21.178,17.168,38.346,38.345,38.346
			c21.176,0,38.345-17.168,38.345-38.346C275.626,346.514,258.458,329.347,237.282,329.347z M237.282,383.223
			c-8.578,0-15.532-6.954-15.532-15.532c0-8.579,6.954-15.532,15.532-15.532c8.578,0,15.532,6.954,15.532,15.532
			C252.814,376.27,245.859,383.223,237.282,383.223z"/>
	</g>
</g>
<g>
	<g>
		<path d="M451.289,329.347c-21.178,0-38.346,17.168-38.346,38.345c0,21.178,17.168,38.346,38.346,38.346
			s38.345-17.168,38.345-38.346C489.634,346.514,472.467,329.347,451.289,329.347z M451.289,383.223
			c-8.578,0-15.532-6.954-15.532-15.532c0-8.579,6.954-15.532,15.532-15.532c8.578,0,15.532,6.954,15.532,15.532
			C466.821,376.27,459.868,383.223,451.289,383.223z"/>
	</g>
</g>
<g>
	<g>
		<path d="M299.032,104.975c-1.423-5.152-6.755-8.172-11.906-6.749l-5.047,1.394l-3.102-11.224c-0.93-3.363-3.463-6.047-6.766-7.17
			l-19.494-6.623c-3.502-1.189-6.92,2.033-5.933,5.6l7.491,27.101l-41.641,11.51c3.76,5.707,5.418,12.245,5.138,18.658l41.66-11.515
			l2.133,7.719c0.679,2.457,3.221,3.898,5.678,3.219l18.908-5.226c2.457-0.679,3.898-3.221,3.219-5.678l-2.133-7.718l5.047-1.394
			C297.435,115.456,300.456,110.127,299.032,104.975z"/>
	</g>
</g>
<g>
	<g>
		<path d="M198.409,127.342c-4.852-6.681-14.203-8.167-20.888-3.313l-50.558,36.714l-64.914,4.95l29.996-7.642
			c-4.664-2.713-10.214-3.727-15.792-2.554l-38.91,8.19c-12.044,2.535-19.764,14.354-17.226,26.412l22.582,107.29
			c-0.485,8.264-2.742,46.7-3.06,52.117L2.496,411.246c-4.959,8.243-2.297,18.946,5.947,23.906
			c8.241,4.958,18.945,2.301,23.906-5.946l39.356-65.415c1.452-2.414,2.298-5.145,2.463-7.959c0.351-5.971,3.23-55.017,3.579-60.956
			l14.231-2.995c2.227,5.417,16.037,39.012,19.19,46.685l0.839,81.839c0.098,9.583,7.905,17.241,17.414,17.241
			c0.06,0,0.121,0,0.182-0.001c9.62-0.098,17.339-7.977,17.24-17.596l-0.875-85.189c-0.022-2.212-0.466-4.398-1.307-6.444
			l-18.908-45.998l-17.387-82.606l-44.044-4.297l69.138-5.272c2.761-0.211,5.409-1.184,7.65-2.81l53.985-39.203
			C201.777,143.376,203.261,134.025,198.409,127.342z"/>
	</g>
</g>
<g>
	<g>
		<path d="M85.443,107.653c-3.755-17.844-21.263-29.256-39.098-25.5c-17.838,3.755-29.255,21.26-25.5,39.098
			c3.764,17.884,21.321,29.242,39.098,25.5C77.696,143.015,89.21,125.551,85.443,107.653z"/>
	</g>
</g>
</svg>
